{"accessors":[{"bufferView":0,"componentType":5126,"count":348,"min":[-0.6708058714866638,-0.6317941546440125,-0.474643349647522],"max":[0.6708058714866638,0.6317941546440125,0.474643349647522],"type":"VEC3","name":"DECALS_Emissive_vertices#0_POSITION"},{"bufferView":0,"byteOffset":12,"componentType":5120,"count":348,"type":"VEC4","name":"DECALS_Emissive_vertices#0_TANGENT"},{"bufferView":0,"byteOffset":16,"componentType":5120,"count":348,"type":"VEC4","name":"DECALS_Emissive_vertices#0_NORMAL"},{"bufferView":0,"byteOffset":20,"componentType":5122,"count":348,"type":"VEC2","name":"DECALS_Emissive_vertices#0_TEXCOORD_0"},{"bufferView":0,"byteOffset":24,"componentType":5122,"count":348,"type":"VEC2","name":"DECALS_Emissive_vertices#0_TEXCOORD_1"},{"bufferView":0,"byteOffset":28,"componentType":5123,"count":348,"type":"VEC4","name":"DECALS_Emissive_vertices#0_COLOR_0"},{"bufferView":1,"componentType":5123,"count":744,"type":"SCALAR","name":"DECALS_Emissive_indices#0"},{"bufferView":0,"byteOffset":12528,"componentType":5126,"count":4,"min":[-0.039812564849853519,-0.006296917796134949,0.000050067901611328128],"max":[0.02179485559463501,0.00992080569267273,0.000050067901611328128],"type":"VEC3","name":"RegistrationNumber_vertices#0_POSITION"},{"bufferView":0,"byteOffset":12540,"componentType":5120,"count":4,"type":"VEC4","name":"RegistrationNumber_vertices#0_TANGENT"},{"bufferView":0,"byteOffset":12544,"componentType":5120,"count":4,"type":"VEC4","name":"RegistrationNumber_vertices#0_NORMAL"},{"bufferView":0,"byteOffset":12548,"componentType":5122,"count":4,"type":"VEC2","name":"RegistrationNumber_vertices#0_TEXCOORD_0"},{"bufferView":0,"byteOffset":12552,"componentType":5122,"count":4,"type":"VEC2","name":"RegistrationNumber_vertices#0_TEXCOORD_1"},{"bufferView":0,"byteOffset":12556,"componentType":5123,"count":4,"type":"VEC4","name":"RegistrationNumber_vertices#0_COLOR_0"},{"bufferView":1,"byteOffset":1488,"componentType":5123,"count":6,"type":"SCALAR","name":"RegistrationNumber_indices#0"},{"bufferView":0,"byteOffset":12672,"componentType":5126,"count":202,"min":[-0.8211142420768738,-0.780449628829956,-4.016685485839844],"max":[0.8214090466499329,0.2614148259162903,1.93654203414917],"type":"VEC3","name":"DECALS_NotEmissive_vertices#0_POSITION"},{"bufferView":0,"byteOffset":12684,"componentType":5120,"count":202,"type":"VEC4","name":"DECALS_NotEmissive_vertices#0_TANGENT"},{"bufferView":0,"byteOffset":12688,"componentType":5120,"count":202,"type":"VEC4","name":"DECALS_NotEmissive_vertices#0_NORMAL"},{"bufferView":0,"byteOffset":12692,"componentType":5122,"count":202,"type":"VEC2","name":"DECALS_NotEmissive_vertices#0_TEXCOORD_0"},{"bufferView":0,"byteOffset":12696,"componentType":5122,"count":202,"type":"VEC2","name":"DECALS_NotEmissive_vertices#0_TEXCOORD_1"},{"bufferView":0,"byteOffset":12700,"componentType":5123,"count":202,"type":"VEC4","name":"DECALS_NotEmissive_vertices#0_COLOR_0"},{"bufferView":1,"byteOffset":1500,"componentType":5123,"count":384,"type":"SCALAR","name":"DECALS_NotEmissive_indices#0"}],"asset":{"generator":"babylon.js glTF exporter for 3dsmax 2019 v1.5.0","version":"2.0","extensions":{"ASOBO_asset_optimized":{"BoundingBoxMax":[0.8214090466499329,0.6317941546440125,1.93654203414917],"BoundingBoxMin":[-0.8211142420768738,-0.780449628829956,-4.016685485839844],"MajorVersion":4,"MinorVersion":2},"ASOBO_normal_map_convention":{"tangent_space_convention":"DirectX"}}},"bufferViews":[{"buffer":0,"byteLength":19944,"byteStride":36,"target":34962,"name":"BufferViewVertexND"},{"buffer":0,"byteLength":2268,"byteOffset":19944,"target":34963,"name":"BufferViewIndex"}],"extensionsUsed":["ASOBO_normal_map_convention","ASOBO_material_blend_gbuffer","MSFT_texture_dds","ASOBO_asset_optimized"],"extensionsRequired":["MSFT_texture_dds"],"materials":[{"name":"DECALS_TEXTS","alphaMode":"BLEND","occlusionTexture":{"index":1},"pbrMetallicRoughness":{"baseColorTexture":{"index":0},"metallicRoughnessTexture":{"index":1}},"extensions":{"ASOBO_material_blend_gbuffer":{}}},{"name":"$RegistrationNumber","alphaMode":"BLEND","pbrMetallicRoughness":{"baseColorFactor":[0.88,0.88,0.88,1.0],"metallicFactor":0.0},"extensions":{"ASOBO_material_blend_gbuffer":{}}}],"meshes":[{"primitives":[{"attributes":{"COLOR_0":5,"NORMAL":2,"POSITION":0,"TANGENT":1,"TEXCOORD_0":3,"TEXCOORD_1":4},"indices":6,"material":0,"mode":4,"extras":{"ASOBO_primitive":{"PrimitiveCount":248,"VertexType":"VTX","VertexVersion":2}}}],"name":"DECALS_Emissive"},{"primitives":[{"attributes":{"COLOR_0":12,"NORMAL":9,"POSITION":7,"TANGENT":8,"TEXCOORD_0":10,"TEXCOORD_1":11},"indices":13,"material":1,"mode":4,"extras":{"ASOBO_primitive":{"PrimitiveCount":2,"VertexType":"VTX","VertexVersion":2}}}],"name":"RegistrationNumber"},{"primitives":[{"attributes":{"COLOR_0":19,"NORMAL":16,"POSITION":14,"TANGENT":15,"TEXCOORD_0":17,"TEXCOORD_1":18},"indices":20,"material":0,"mode":4,"extras":{"ASOBO_primitive":{"PrimitiveCount":128,"VertexType":"VTX","VertexVersion":2}}}],"name":"DECALS_NotEmissive"}],"nodes":[{"translation":[0.1149562,-0.3464306,1.41520059],"rotation":[0.0,0.0,0.0,1.0],"scale":[1.0,1.0,1.0],"mesh":0,"name":"DECALS_Emissive"},{"translation":[0.176999211,-0.256669044,1.81230545],"rotation":[0.0,0.0,0.0,1.0],"scale":[1.0,1.0,1.0],"name":"CONTAINER_AS1000_MID_1"},{"translation":[0.0342289,-0.46985662,1.82372367],"rotation":[0.0,0.0,0.0,1.0],"scale":[1.069,1.069,1.069],"name":"CONTAINER_AttitudeIndicator_KnobRotate_1"},{"translation":[-0.0572679974,-0.4414417,1.822094],"rotation":[0.0,-8.742278e-8,0.0,1.0],"scale":[0.89568,0.89568,0.89568],"name":"CONTAINER_Altimeter_MB_InHg_1"},{"translation":[0.008254064,-0.138064459,1.8155663],"rotation":[0.0,0.0,0.0,1.0],"scale":[1.0,1.0,1.0],"name":"CONTAINER_AS700_1"},{"translation":[0.355684161,-0.295877755,1.81609154],"rotation":[0.0,0.0,0.0,1.0],"scale":[1.0,1.0,1.0],"name":"CONTAINER_AS1000_PFD_NoAutopilot_1","children":[6,7]},{"translation":[0.0,0.0,0.0],"rotation":[0.0,0.0,0.0,1.0],"scale":[1.0,1.0,1.0],"name":"CONTAINER_AS1000_Frame_NoAutopilot_2"},{"translation":[0.0,0.0,0.0],"rotation":[0.0,0.0,0.0,1.0],"scale":[1.0,1.0,1.0],"name":"CONTAINER_AS1000_PFD_Common_2"},{"translation":[-0.3432563,-0.295877755,1.81609154],"rotation":[0.0,0.0,0.0,1.0],"scale":[1.0,1.0,1.0],"name":"CONTAINER_AS1000_PFD_NoAutopilot_2","children":[9,10]},{"translation":[0.0,0.0,0.0],"rotation":[0.0,0.0,0.0,1.0],"scale":[1.0,1.0,1.0],"name":"CONTAINER_AS1000_Frame_NoAutopilot_1"},{"translation":[0.0,0.0,0.0],"rotation":[0.0,0.0,0.0,1.0],"scale":[1.0,1.0,1.0],"name":"CONTAINER_AS1000_PFD_Common_1"},{"translation":[0.1258008,-0.441562772,1.83215487],"rotation":[0.0,0.0,0.0,1.0],"scale":[1.048375,1.048375,1.048375],"name":"CONTAINER_AirspeedIndicator_C172_SP_1"},{"translation":[0.5460246,-0.1871002,1.81241488],"rotation":[0.0,0.0,0.0,1.0],"scale":[0.780899167,0.780899167,0.780899167],"mesh":1,"name":"RegistrationNumber"},{"translation":[-0.004534658,-0.54041636,1.82235456],"rotation":[0.0,0.0,0.0,1.0],"scale":[1.0,1.0,1.0],"name":"CONTAINER_ADF_AS87_1"},{"translation":[0.791985035,-0.8596288,1.3749938],"rotation":[0.0,-1.0,0.0,-7.54979e-8],"scale":[1.0,1.0,1.0],"name":"CONTAINER_Extinguisher01_1"},{"translation":[0.00809,-0.29588,1.81609],"rotation":[0.0,0.0,0.0,1.0],"scale":[1.0,1.0,1.0],"name":"CONTAINER_AS1000_PFD_NoAutopilot_3","children":[16,17]},{"translation":[0.0,0.0,0.0],"rotation":[0.0,0.0,0.0,1.0],"scale":[1.0,1.0,1.0],"name":"CONTAINER_AS1000_Frame_NoAutopilot_3"},{"translation":[0.0,0.0,0.0],"rotation":[0.0,0.0,0.0,1.0],"scale":[1.0,1.0,1.0],"name":"CONTAINER_AS1000_PFD_Common_3"},{"translation":[0.0,-0.0004171729,0.0087583065],"rotation":[0.0,0.0,0.0,1.0],"scale":[1.0,1.0,1.0],"mesh":2,"name":"DECALS_NotEmissive"},{"translation":[0.3480835,-0.7217903,1.22016144],"rotation":[0.0,0.0,0.0,1.0],"scale":[1.0,1.0,1.0],"name":"PILOT_0"},{"translation":[-0.338659167,-0.7217903,1.22016144],"rotation":[0.0,0.0,0.0,1.0],"scale":[1.0,1.0,1.0],"name":"PILOT_1"}],"scene":0,"scenes":[{"nodes":[0,1,2,3,4,5,8,11,12,13,14,15,18,19,20]}],"textures":[{"extensions":{"MSFT_texture_dds":{"source":0}}},{"extensions":{"MSFT_texture_dds":{"source":1}}}],"buffers":[{"byteLength":22212,"uri":"208B_GRAND_CARAVAN_EX_INTERIOR_LOD06.bin"}],"images":[{"uri":"CESSNA_208B_GRANDCARAVANEX_COCKPIT_DECALS_TEXTS_ALBD.TIF.DDS","extras":"ASOBO_image_converted_meta"},{"uri":"CESSNA_208B_GRANDCARAVANEX_COCKPIT_DECALS_TEXTS_COMP.PNG.DDS","extras":"ASOBO_image_converted_meta"}]}
