{"accessors":[{"bufferView":0,"componentType":5126,"count":99,"min":[-8.019015312194825,-1.8129584789276124,-8.171586036682129],"max":[7.906454086303711,2.4287281036376955,4.621159553527832],"type":"VEC3","name":"x6_FUSELAGE_vertices#0_POSITION"},{"bufferView":0,"byteOffset":12,"componentType":5120,"count":99,"type":"VEC4","name":"x6_FUSELAGE_vertices#0_TANGENT"},{"bufferView":0,"byteOffset":16,"componentType":5120,"count":99,"type":"VEC4","name":"x6_FUSELAGE_vertices#0_NORMAL"},{"bufferView":0,"byteOffset":20,"componentType":5122,"count":99,"type":"VEC2","name":"x6_FUSELAGE_vertices#0_TEXCOORD_0"},{"bufferView":0,"byteOffset":24,"componentType":5122,"count":99,"type":"VEC2","name":"x6_FUSELAGE_vertices#0_TEXCOORD_1"},{"bufferView":0,"byteOffset":28,"componentType":5123,"count":99,"type":"VEC4","name":"x6_FUSELAGE_vertices#0_COLOR_0"},{"bufferView":1,"componentType":5123,"count":198,"type":"SCALAR","name":"x6_FUSELAGE_indices#0"}],"asset":{"generator":"babylon.js glTF exporter for 3dsmax 2019 v1.0.7611.18261","version":"2.0","extensions":{"ASOBO_asset_optimized":{"BoundingBoxMax":[7.906454086303711,2.4287281036376955,4.621159553527832],"BoundingBoxMin":[-8.019015312194825,-1.8129584789276124,-8.171586036682129],"MajorVersion":4,"MinorVersion":2},"ASOBO_normal_map_convention":{"tangent_space_convention":"DirectX"}}},"bufferViews":[{"buffer":0,"byteLength":3564,"byteStride":36,"target":34962,"name":"BufferViewVertexND"},{"buffer":0,"byteLength":396,"byteOffset":3564,"target":34963,"name":"BufferViewIndex"}],"extensionsUsed":["ASOBO_normal_map_convention","MSFT_texture_dds","ASOBO_asset_optimized"],"extensionsRequired":["MSFT_texture_dds"],"materials":[{"name":"Material #3","occlusionTexture":{"index":1},"pbrMetallicRoughness":{"baseColorTexture":{"index":0},"metallicRoughnessTexture":{"index":1}}}],"meshes":[{"primitives":[{"attributes":{"COLOR_0":5,"NORMAL":2,"POSITION":0,"TANGENT":1,"TEXCOORD_0":3,"TEXCOORD_1":4},"indices":6,"material":0,"mode":4,"extras":{"ASOBO_primitive":{"PrimitiveCount":66,"VertexType":"VTX","VertexVersion":2}}}],"name":"x6_FUSELAGE"}],"nodes":[{"translation":[0.0,0.0,0.0],"rotation":[0.0,0.0,0.0,1.0],"scale":[1.0,1.0,1.0],"mesh":0,"name":"FUSELAGE"}],"scene":0,"scenes":[{"nodes":[0]}],"textures":[{"extensions":{"MSFT_texture_dds":{"source":0}}},{"extensions":{"MSFT_texture_dds":{"source":1}}}],"buffers":[{"byteLength":3960,"uri":"208B_GRAND_CARAVAN_EX_LOD06.bin"}],"images":[{"uri":"CESSNA_208B_GRANDCARAVANEX_AIRFRAME_X6_ALBD.PNG.DDS","extras":"ASOBO_image_converted_meta"},{"uri":"CESSNA_208B_GRANDCARAVANEX_AIRFRAME_X6_COMP.PNG.DDS","extras":"ASOBO_image_converted_meta"}]}
