{"accessors":[{"bufferView":0,"componentType":5126,"count":348,"min":[-0.6708058714866638,-0.6317941546440125,-0.474643349647522],"max":[0.6708058714866638,0.6317941546440125,0.474643349647522],"type":"VEC3","name":"DECALS_Emissive_vertices#0_POSITION"},{"bufferView":0,"byteOffset":12,"componentType":5120,"count":348,"type":"VEC4","name":"DECALS_Emissive_vertices#0_TANGENT"},{"bufferView":0,"byteOffset":16,"componentType":5120,"count":348,"type":"VEC4","name":"DECALS_Emissive_vertices#0_NORMAL"},{"bufferView":0,"byteOffset":20,"componentType":5122,"count":348,"type":"VEC2","name":"DECALS_Emissive_vertices#0_TEXCOORD_0"},{"bufferView":0,"byteOffset":24,"componentType":5122,"count":348,"type":"VEC2","name":"DECALS_Emissive_vertices#0_TEXCOORD_1"},{"bufferView":0,"byteOffset":28,"componentType":5123,"count":348,"type":"VEC4","name":"DECALS_Emissive_vertices#0_COLOR_0"},{"bufferView":1,"componentType":5123,"count":744,"type":"SCALAR","name":"DECALS_Emissive_indices#0"},{"bufferView":0,"byteOffset":12528,"componentType":5126,"count":378,"min":[-0.8837032318115234,-1.0912766456604005,-4.259361267089844],"max":[0.8837032318115234,0.2718176543712616,2.1610372066497804],"type":"VEC3","name":"x5_BACK_vertices#0_POSITION"},{"bufferView":0,"byteOffset":12540,"componentType":5120,"count":378,"type":"VEC4","name":"x5_BACK_vertices#0_TANGENT"},{"bufferView":0,"byteOffset":12544,"componentType":5120,"count":378,"type":"VEC4","name":"x5_BACK_vertices#0_NORMAL"},{"bufferView":0,"byteOffset":12548,"componentType":5122,"count":378,"type":"VEC2","name":"x5_BACK_vertices#0_TEXCOORD_0"},{"bufferView":0,"byteOffset":12552,"componentType":5122,"count":378,"type":"VEC2","name":"x5_BACK_vertices#0_TEXCOORD_1"},{"bufferView":0,"byteOffset":12556,"componentType":5123,"count":378,"type":"VEC4","name":"x5_BACK_vertices#0_COLOR_0"},{"bufferView":1,"byteOffset":1488,"componentType":5123,"count":792,"type":"SCALAR","name":"x5_BACK_indices#6"},{"bufferView":0,"byteOffset":26136,"componentType":5126,"count":28,"min":[-0.12295721471309662,0.17738494277000428,2.4674673080444338],"max":[0.12337598204612732,0.22131383419036866,2.475102424621582],"type":"VEC3","name":"x5_AUTOPILOT_Frame_1_vertices#0_POSITION"},{"bufferView":0,"byteOffset":26148,"componentType":5120,"count":28,"type":"VEC4","name":"x5_AUTOPILOT_Frame_1_vertices#0_TANGENT"},{"bufferView":0,"byteOffset":26152,"componentType":5120,"count":28,"type":"VEC4","name":"x5_AUTOPILOT_Frame_1_vertices#0_NORMAL"},{"bufferView":0,"byteOffset":26156,"componentType":5122,"count":28,"type":"VEC2","name":"x5_AUTOPILOT_Frame_1_vertices#0_TEXCOORD_0"},{"bufferView":0,"byteOffset":26160,"componentType":5122,"count":28,"type":"VEC2","name":"x5_AUTOPILOT_Frame_1_vertices#0_TEXCOORD_1"},{"bufferView":0,"byteOffset":26164,"componentType":5123,"count":28,"type":"VEC4","name":"x5_AUTOPILOT_Frame_1_vertices#0_COLOR_0"},{"bufferView":1,"byteOffset":3072,"componentType":5123,"count":66,"type":"SCALAR","name":"x5_AUTOPILOT_Frame_1_indices#0"},{"bufferView":0,"byteOffset":27144,"componentType":5126,"count":4,"min":[-0.10697222501039505,-0.07951286435127258,0.0022084731608629228],"max":[0.10373081266880036,0.08214080333709717,0.0022085625678300859],"type":"VEC3","name":"x5_AS1000_PFD_Screen_1_vertices#0_POSITION"},{"bufferView":0,"byteOffset":27156,"componentType":5120,"count":4,"type":"VEC4","name":"x5_AS1000_PFD_Screen_1_vertices#0_TANGENT"},{"bufferView":0,"byteOffset":27160,"componentType":5120,"count":4,"type":"VEC4","name":"x5_AS1000_PFD_Screen_1_vertices#0_NORMAL"},{"bufferView":0,"byteOffset":27164,"componentType":5122,"count":4,"type":"VEC2","name":"x5_AS1000_PFD_Screen_1_vertices#0_TEXCOORD_0"},{"bufferView":0,"byteOffset":27168,"componentType":5122,"count":4,"type":"VEC2","name":"x5_AS1000_PFD_Screen_1_vertices#0_TEXCOORD_1"},{"bufferView":0,"byteOffset":27172,"componentType":5123,"count":4,"type":"VEC4","name":"x5_AS1000_PFD_Screen_1_vertices#0_COLOR_0"},{"bufferView":1,"byteOffset":3204,"componentType":5123,"count":6,"type":"SCALAR","name":"x5_AS1000_PFD_Screen_1_indices#0"},{"bufferView":0,"byteOffset":27288,"componentType":5126,"count":4,"min":[-0.10697222501039505,-0.07951286435127258,0.0022084731608629228],"max":[0.10373081266880036,0.08214080333709717,0.0022085625678300859],"type":"VEC3","name":"x5_AS1000_PFD_Screen_2_vertices#0_POSITION"},{"bufferView":0,"byteOffset":27300,"componentType":5120,"count":4,"type":"VEC4","name":"x5_AS1000_PFD_Screen_2_vertices#0_TANGENT"},{"bufferView":0,"byteOffset":27304,"componentType":5120,"count":4,"type":"VEC4","name":"x5_AS1000_PFD_Screen_2_vertices#0_NORMAL"},{"bufferView":0,"byteOffset":27308,"componentType":5122,"count":4,"type":"VEC2","name":"x5_AS1000_PFD_Screen_2_vertices#0_TEXCOORD_0"},{"bufferView":0,"byteOffset":27312,"componentType":5122,"count":4,"type":"VEC2","name":"x5_AS1000_PFD_Screen_2_vertices#0_TEXCOORD_1"},{"bufferView":0,"byteOffset":27316,"componentType":5123,"count":4,"type":"VEC4","name":"x5_AS1000_PFD_Screen_2_vertices#0_COLOR_0"},{"bufferView":1,"byteOffset":3216,"componentType":5123,"count":6,"type":"SCALAR","name":"x5_AS1000_PFD_Screen_2_indices#0"},{"bufferView":0,"byteOffset":27432,"componentType":5126,"count":4,"min":[-0.039812564849853519,-0.006296917796134949,0.000050067901611328128],"max":[0.02179485559463501,0.00992080569267273,0.000050067901611328128],"type":"VEC3","name":"RegistrationNumber_vertices#0_POSITION"},{"bufferView":0,"byteOffset":27444,"componentType":5120,"count":4,"type":"VEC4","name":"RegistrationNumber_vertices#0_TANGENT"},{"bufferView":0,"byteOffset":27448,"componentType":5120,"count":4,"type":"VEC4","name":"RegistrationNumber_vertices#0_NORMAL"},{"bufferView":0,"byteOffset":27452,"componentType":5122,"count":4,"type":"VEC2","name":"RegistrationNumber_vertices#0_TEXCOORD_0"},{"bufferView":0,"byteOffset":27456,"componentType":5122,"count":4,"type":"VEC2","name":"RegistrationNumber_vertices#0_TEXCOORD_1"},{"bufferView":0,"byteOffset":27460,"componentType":5123,"count":4,"type":"VEC4","name":"RegistrationNumber_vertices#0_COLOR_0"},{"bufferView":1,"byteOffset":3228,"componentType":5123,"count":6,"type":"SCALAR","name":"RegistrationNumber_indices#0"},{"bufferView":0,"byteOffset":27576,"componentType":5126,"count":4,"min":[-0.10697222501039505,-0.07951286435127258,0.0022084731608629228],"max":[0.10373081266880036,0.08214080333709717,0.0022085625678300859],"type":"VEC3","name":"x5_AS1000_PFD_Screen_3_vertices#0_POSITION"},{"bufferView":0,"byteOffset":27588,"componentType":5120,"count":4,"type":"VEC4","name":"x5_AS1000_PFD_Screen_3_vertices#0_TANGENT"},{"bufferView":0,"byteOffset":27592,"componentType":5120,"count":4,"type":"VEC4","name":"x5_AS1000_PFD_Screen_3_vertices#0_NORMAL"},{"bufferView":0,"byteOffset":27596,"componentType":5122,"count":4,"type":"VEC2","name":"x5_AS1000_PFD_Screen_3_vertices#0_TEXCOORD_0"},{"bufferView":0,"byteOffset":27600,"componentType":5122,"count":4,"type":"VEC2","name":"x5_AS1000_PFD_Screen_3_vertices#0_TEXCOORD_1"},{"bufferView":0,"byteOffset":27604,"componentType":5123,"count":4,"type":"VEC4","name":"x5_AS1000_PFD_Screen_3_vertices#0_COLOR_0"},{"bufferView":1,"byteOffset":3240,"componentType":5123,"count":6,"type":"SCALAR","name":"x5_AS1000_PFD_Screen_3_indices#0"},{"bufferView":0,"byteOffset":27720,"componentType":5126,"count":202,"min":[-0.8211142420768738,-0.780449628829956,-4.016685485839844],"max":[0.8214090466499329,0.2614148259162903,1.93654203414917],"type":"VEC3","name":"DECALS_NotEmissive_vertices#0_POSITION"},{"bufferView":0,"byteOffset":27732,"componentType":5120,"count":202,"type":"VEC4","name":"DECALS_NotEmissive_vertices#0_TANGENT"},{"bufferView":0,"byteOffset":27736,"componentType":5120,"count":202,"type":"VEC4","name":"DECALS_NotEmissive_vertices#0_NORMAL"},{"bufferView":0,"byteOffset":27740,"componentType":5122,"count":202,"type":"VEC2","name":"DECALS_NotEmissive_vertices#0_TEXCOORD_0"},{"bufferView":0,"byteOffset":27744,"componentType":5122,"count":202,"type":"VEC2","name":"DECALS_NotEmissive_vertices#0_TEXCOORD_1"},{"bufferView":0,"byteOffset":27748,"componentType":5123,"count":202,"type":"VEC4","name":"DECALS_NotEmissive_vertices#0_COLOR_0"},{"bufferView":1,"byteOffset":3252,"componentType":5123,"count":384,"type":"SCALAR","name":"DECALS_NotEmissive_indices#0"}],"asset":{"generator":"babylon.js glTF exporter for 3dsmax 2019 v1.0.7633.28947","version":"2.0","extensions":{"ASOBO_asset_optimized":{"BoundingBoxMax":[0.8837032318115234,0.6317941546440125,2.475102424621582],"BoundingBoxMin":[-0.8837032318115234,-1.0912766456604005,-4.259361267089844],"MajorVersion":4,"MinorVersion":2},"ASOBO_normal_map_convention":{"tangent_space_convention":"DirectX"}}},"bufferViews":[{"buffer":0,"byteLength":34992,"byteStride":36,"target":34962,"name":"BufferViewVertexND"},{"buffer":0,"byteLength":4020,"byteOffset":34992,"target":34963,"name":"BufferViewIndex"}],"extensionsUsed":["ASOBO_normal_map_convention","ASOBO_material_blend_gbuffer","ASOBO_material_detail_map","MSFT_texture_dds","ASOBO_asset_optimized"],"extensionsRequired":["MSFT_texture_dds"],"materials":[{"name":"DECALS_TEXTS","alphaMode":"BLEND","occlusionTexture":{"index":1},"pbrMetallicRoughness":{"baseColorTexture":{"index":0},"metallicRoughnessTexture":{"index":1}},"extensions":{"ASOBO_material_blend_gbuffer":{}}},{"name":"MAIN_PANEL","normalTexture":{"index":4},"occlusionTexture":{"index":3},"pbrMetallicRoughness":{"baseColorTexture":{"index":2},"metallicRoughnessTexture":{"index":3}},"extensions":{"ASOBO_material_detail_map":{"UVScale":50.0,"detailNormalTexture":{"index":5,"scale":0.4}}}},{"name":"DOORS","normalTexture":{"index":8},"occlusionTexture":{"index":7},"pbrMetallicRoughness":{"baseColorTexture":{"index":6},"metallicRoughnessTexture":{"index":7}}},{"name":"TOP_FRONT","normalTexture":{"index":11},"occlusionTexture":{"index":10},"pbrMetallicRoughness":{"baseColorTexture":{"index":9},"metallicRoughnessTexture":{"index":10}}},{"name":"BACK","normalTexture":{"index":14},"occlusionTexture":{"index":13},"pbrMetallicRoughness":{"baseColorTexture":{"index":12},"metallicRoughnessTexture":{"index":13}}},{"name":"SEAT_FRONT","normalTexture":{"index":17},"occlusionTexture":{"index":16},"pbrMetallicRoughness":{"baseColorTexture":{"index":15},"metallicRoughnessTexture":{"index":16}}},{"name":"CABIN_SEATS","normalTexture":{"index":20},"occlusionTexture":{"index":19},"pbrMetallicRoughness":{"baseColorTexture":{"index":18},"metallicRoughnessTexture":{"index":19}}},{"name":"FLOOR_BACK","normalTexture":{"index":23},"occlusionTexture":{"index":22},"pbrMetallicRoughness":{"baseColorTexture":{"index":21},"metallicRoughnessTexture":{"index":22}}},{"name":"Body","normalTexture":{"index":26},"occlusionTexture":{"index":25},"pbrMetallicRoughness":{"baseColorTexture":{"index":24},"metallicRoughnessTexture":{"index":25}}},{"name":"$AS1000_PFD_1","emissiveFactor":[1.0,1.0,1.0],"pbrMetallicRoughness":{"baseColorFactor":[0.0,0.0,0.0,1.0]}},{"name":"$AS1000_PFD_2","emissiveFactor":[1.0,1.0,1.0],"pbrMetallicRoughness":{"baseColorFactor":[0.0,0.0,0.0,1.0]}},{"name":"$RegistrationNumber","alphaMode":"BLEND","pbrMetallicRoughness":{"baseColorFactor":[0.88,0.88,0.88,1.0],"metallicFactor":0.0},"extensions":{"ASOBO_material_blend_gbuffer":{}}},{"name":"$AS1000_PFD_3","emissiveFactor":[1.0,1.0,1.0],"pbrMetallicRoughness":{"baseColorFactor":[0.0,0.0,0.0,1.0]}}],"meshes":[{"primitives":[{"attributes":{"COLOR_0":5,"NORMAL":2,"POSITION":0,"TANGENT":1,"TEXCOORD_0":3,"TEXCOORD_1":4},"indices":6,"material":0,"mode":4,"extras":{"ASOBO_primitive":{"PrimitiveCount":248,"VertexType":"VTX","VertexVersion":2}}}],"name":"DECALS_Emissive"},{"primitives":[{"attributes":{"COLOR_0":12,"NORMAL":9,"POSITION":7,"TANGENT":8,"TEXCOORD_0":10,"TEXCOORD_1":11},"indices":13,"material":1,"mode":4,"extras":{"ASOBO_primitive":{"PrimitiveCount":16,"VertexType":"VTX","VertexVersion":2}}},{"attributes":{"COLOR_0":12,"NORMAL":9,"POSITION":7,"TANGENT":8,"TEXCOORD_0":10,"TEXCOORD_1":11},"indices":13,"material":2,"mode":4,"extras":{"ASOBO_primitive":{"PrimitiveCount":24,"StartIndex":48,"VertexType":"VTX","VertexVersion":2}}},{"attributes":{"COLOR_0":12,"NORMAL":9,"POSITION":7,"TANGENT":8,"TEXCOORD_0":10,"TEXCOORD_1":11},"indices":13,"material":3,"mode":4,"extras":{"ASOBO_primitive":{"PrimitiveCount":38,"StartIndex":120,"VertexType":"VTX","VertexVersion":2}}},{"attributes":{"COLOR_0":12,"NORMAL":9,"POSITION":7,"TANGENT":8,"TEXCOORD_0":10,"TEXCOORD_1":11},"indices":13,"material":4,"mode":4,"extras":{"ASOBO_primitive":{"PrimitiveCount":130,"StartIndex":234,"VertexType":"VTX","VertexVersion":2}}},{"attributes":{"COLOR_0":12,"NORMAL":9,"POSITION":7,"TANGENT":8,"TEXCOORD_0":10,"TEXCOORD_1":11},"indices":13,"material":5,"mode":4,"extras":{"ASOBO_primitive":{"PrimitiveCount":8,"StartIndex":624,"VertexType":"VTX","VertexVersion":2}}},{"attributes":{"COLOR_0":12,"NORMAL":9,"POSITION":7,"TANGENT":8,"TEXCOORD_0":10,"TEXCOORD_1":11},"indices":13,"material":6,"mode":4,"extras":{"ASOBO_primitive":{"PrimitiveCount":32,"StartIndex":648,"VertexType":"VTX","VertexVersion":2}}},{"attributes":{"COLOR_0":12,"NORMAL":9,"POSITION":7,"TANGENT":8,"TEXCOORD_0":10,"TEXCOORD_1":11},"indices":13,"material":7,"mode":4,"extras":{"ASOBO_primitive":{"PrimitiveCount":16,"StartIndex":744,"VertexType":"VTX","VertexVersion":2}}}],"name":"x5_BACK"},{"primitives":[{"attributes":{"COLOR_0":19,"NORMAL":16,"POSITION":14,"TANGENT":15,"TEXCOORD_0":17,"TEXCOORD_1":18},"indices":20,"material":8,"mode":4,"extras":{"ASOBO_primitive":{"PrimitiveCount":22,"VertexType":"VTX","VertexVersion":2}}}],"name":"x5_AUTOPILOT_Frame_1"},{"primitives":[{"attributes":{"COLOR_0":26,"NORMAL":23,"POSITION":21,"TANGENT":22,"TEXCOORD_0":24,"TEXCOORD_1":25},"indices":27,"material":9,"mode":4,"extras":{"ASOBO_primitive":{"PrimitiveCount":2,"VertexType":"VTX","VertexVersion":2}}}],"name":"x5_AS1000_PFD_Screen_1"},{"primitives":[{"attributes":{"COLOR_0":33,"NORMAL":30,"POSITION":28,"TANGENT":29,"TEXCOORD_0":31,"TEXCOORD_1":32},"indices":34,"material":10,"mode":4,"extras":{"ASOBO_primitive":{"PrimitiveCount":2,"VertexType":"VTX","VertexVersion":2}}}],"name":"x5_AS1000_PFD_Screen_2"},{"primitives":[{"attributes":{"COLOR_0":40,"NORMAL":37,"POSITION":35,"TANGENT":36,"TEXCOORD_0":38,"TEXCOORD_1":39},"indices":41,"material":11,"mode":4,"extras":{"ASOBO_primitive":{"PrimitiveCount":2,"VertexType":"VTX","VertexVersion":2}}}],"name":"RegistrationNumber"},{"primitives":[{"attributes":{"COLOR_0":47,"NORMAL":44,"POSITION":42,"TANGENT":43,"TEXCOORD_0":45,"TEXCOORD_1":46},"indices":48,"material":12,"mode":4,"extras":{"ASOBO_primitive":{"PrimitiveCount":2,"VertexType":"VTX","VertexVersion":2}}}],"name":"x5_AS1000_PFD_Screen_3"},{"primitives":[{"attributes":{"COLOR_0":54,"NORMAL":51,"POSITION":49,"TANGENT":50,"TEXCOORD_0":52,"TEXCOORD_1":53},"indices":55,"material":0,"mode":4,"extras":{"ASOBO_primitive":{"PrimitiveCount":128,"VertexType":"VTX","VertexVersion":2}}}],"name":"DECALS_NotEmissive"}],"nodes":[{"translation":[0.1149562,-0.3464306,1.41520059],"rotation":[0.0,0.0,0.0,1.0],"scale":[1.0,1.0,1.0],"mesh":0,"name":"DECALS_Emissive"},{"translation":[0.0,-0.0189574957,0.0],"rotation":[0.0,0.0,0.0,1.0],"scale":[1.0,1.0,1.0],"mesh":1,"name":"BACK"},{"translation":[0.176999211,-0.256669044,1.81230545],"rotation":[0.0,0.0,0.0,1.0],"scale":[1.0,1.0,1.0],"name":"CONTAINER_AS1000_MID_1"},{"translation":[0.0342289,-0.46985662,1.82372367],"rotation":[0.0,0.0,0.0,1.0],"scale":[1.069,1.069,1.069],"name":"CONTAINER_AttitudeIndicator_KnobRotate_1"},{"translation":[-0.0572679974,-0.4414417,1.822094],"rotation":[0.0,-8.742278e-8,0.0,1.0],"scale":[0.89568,0.89568,0.89568],"name":"CONTAINER_Altimeter_MB_InHg_1"},{"translation":[0.008254064,-0.138064459,1.8155663],"rotation":[0.0,0.0,0.0,1.0],"scale":[1.0,1.0,1.0],"name":"CONTAINER_AS700_1","children":[6]},{"translation":[-0.007852338,-0.502464533,-2.42577386],"rotation":[-0.06126736,0.0,0.0,0.99812144],"scale":[1.0,1.0,1.0],"mesh":2,"name":"AUTOPILOT_Frame_1"},{"translation":[0.355684161,-0.295877755,1.81609154],"rotation":[0.0,0.0,0.0,1.0],"scale":[1.0,1.0,1.0],"name":"CONTAINER_AS1000_PFD_NoAutopilot_1","children":[8,9]},{"translation":[0.0,0.0,0.0],"rotation":[0.0,0.0,0.0,1.0],"scale":[1.0,1.0,1.0],"name":"CONTAINER_AS1000_Frame_NoAutopilot_1"},{"translation":[0.0,0.0,0.0],"rotation":[0.0,0.0,0.0,1.0],"scale":[1.0,1.0,1.0],"name":"CONTAINER_AS1000_PFD_Common_1","children":[10]},{"translation":[-0.00436460972,0.0327134132,0.007773161],"rotation":[0.000376234471,-1.95154622e-11,-9.152146e-10,0.99999994],"scale":[1.0,0.99999994,0.99999994],"mesh":3,"name":"AS1000_PFD_Screen_1"},{"translation":[-0.3432563,-0.295877755,1.81609154],"rotation":[0.0,0.0,0.0,1.0],"scale":[1.0,1.0,1.0],"name":"CONTAINER_AS1000_PFD_NoAutopilot_2","children":[12,13]},{"translation":[0.0,0.0,0.0],"rotation":[0.0,0.0,0.0,1.0],"scale":[1.0,1.0,1.0],"name":"CONTAINER_AS1000_Frame_NoAutopilot_2"},{"translation":[0.0,0.0,0.0],"rotation":[0.0,0.0,0.0,1.0],"scale":[1.0,1.0,1.0],"name":"CONTAINER_AS1000_PFD_Common_2","children":[14]},{"translation":[-0.00436460972,0.0327134132,0.007773161],"rotation":[0.000376234471,-1.95154622e-11,-9.152146e-10,0.99999994],"scale":[1.0,0.99999994,0.99999994],"mesh":4,"name":"AS1000_PFD_Screen_2"},{"translation":[0.1258008,-0.441562772,1.83215487],"rotation":[0.0,0.0,0.0,1.0],"scale":[1.048375,1.048375,1.048375],"name":"CONTAINER_AirspeedIndicator_C172_SP_1"},{"translation":[0.5460246,-0.1871002,1.81241488],"rotation":[0.0,0.0,0.0,1.0],"scale":[0.780899167,0.780899167,0.780899167],"mesh":5,"name":"RegistrationNumber"},{"translation":[-0.004534658,-0.54041636,1.82235456],"rotation":[0.0,0.0,0.0,1.0],"scale":[1.0,1.0,1.0],"name":"CONTAINER_ADF_AS87_1"},{"translation":[0.791985035,-0.8596288,1.3749938],"rotation":[0.0,-1.0,0.0,-7.54979e-8],"scale":[1.0,1.0,1.0],"name":"CONTAINER_Extinguisher01_1"},{"translation":[0.00809,-0.29588,1.81609],"rotation":[0.0,0.0,0.0,1.0],"scale":[1.0,1.0,1.0],"name":"CONTAINER_AS1000_PFD_NoAutopilot_3","children":[20,21]},{"translation":[0.0,0.0,0.0],"rotation":[0.0,0.0,0.0,1.0],"scale":[1.0,1.0,1.0],"name":"CONTAINER_AS1000_Frame_NoAutopilot_3"},{"translation":[0.0,0.0,0.0],"rotation":[0.0,0.0,0.0,1.0],"scale":[1.0,1.0,1.0],"name":"CONTAINER_AS1000_PFD_Common_3","children":[22]},{"translation":[-0.00436460972,0.0327134132,0.007773161],"rotation":[0.000376234471,-1.95154622e-11,-9.152146e-10,0.99999994],"scale":[1.0,0.99999994,0.99999994],"mesh":6,"name":"AS1000_PFD_Screen_3"},{"translation":[0.0,-0.0004171729,0.0087583065],"rotation":[0.0,0.0,0.0,1.0],"scale":[1.0,1.0,1.0],"mesh":7,"name":"DECALS_NotEmissive"},{"translation":[0.3480835,-0.7217903,1.22016144],"rotation":[0.0,0.0,0.0,1.0],"scale":[1.0,1.0,1.0],"name":"PILOT_0"},{"translation":[-0.338659167,-0.7217903,1.22016144],"rotation":[0.0,0.0,0.0,1.0],"scale":[1.0,1.0,1.0],"name":"PILOT_1"}],"scene":0,"scenes":[{"nodes":[0,1,2,3,4,5,7,11,15,16,17,18,19,23,24,25]}],"textures":[{"extensions":{"MSFT_texture_dds":{"source":0}}},{"extensions":{"MSFT_texture_dds":{"source":1}}},{"extensions":{"MSFT_texture_dds":{"source":2}}},{"extensions":{"MSFT_texture_dds":{"source":3}}},{"extensions":{"MSFT_texture_dds":{"source":4}}},{"extensions":{"MSFT_texture_dds":{"source":5}}},{"extensions":{"MSFT_texture_dds":{"source":6}}},{"extensions":{"MSFT_texture_dds":{"source":7}}},{"extensions":{"MSFT_texture_dds":{"source":8}}},{"extensions":{"MSFT_texture_dds":{"source":9}}},{"extensions":{"MSFT_texture_dds":{"source":10}}},{"extensions":{"MSFT_texture_dds":{"source":11}}},{"extensions":{"MSFT_texture_dds":{"source":12}}},{"extensions":{"MSFT_texture_dds":{"source":13}}},{"extensions":{"MSFT_texture_dds":{"source":14}}},{"extensions":{"MSFT_texture_dds":{"source":15}}},{"extensions":{"MSFT_texture_dds":{"source":16}}},{"extensions":{"MSFT_texture_dds":{"source":17}}},{"extensions":{"MSFT_texture_dds":{"source":18}}},{"extensions":{"MSFT_texture_dds":{"source":19}}},{"extensions":{"MSFT_texture_dds":{"source":20}}},{"extensions":{"MSFT_texture_dds":{"source":21}}},{"extensions":{"MSFT_texture_dds":{"source":22}}},{"extensions":{"MSFT_texture_dds":{"source":23}}},{"extensions":{"MSFT_texture_dds":{"source":24}}},{"extensions":{"MSFT_texture_dds":{"source":25}}},{"extensions":{"MSFT_texture_dds":{"source":26}}}],"buffers":[{"byteLength":39012,"uri":"208B_GRAND_CARAVAN_EX_INTERIOR_LOD05.bin"}],"images":[{"uri":"CESSNA_208B_GRANDCARAVANEX_COCKPIT_DECALS_TEXTS_ALBD.TIF.DDS","extras":"ASOBO_image_converted_meta"},{"uri":"CESSNA_208B_GRANDCARAVANEX_COCKPIT_DECALS_TEXTS_COMP.PNG.DDS","extras":"ASOBO_image_converted_meta"},{"uri":"CESSNA_208B_GRANDCARAVANEX_COCKPIT_MAIN_PANEL_ALBD.PNG.DDS","extras":"ASOBO_image_converted_meta"},{"uri":"CESSNA_208B_GRANDCARAVANEX_COCKPIT_MAIN_PANEL_COMP.PNG.DDS","extras":"ASOBO_image_converted_meta"},{"uri":"CESSNA_208B_GRANDCARAVANEX_COCKPIT_MAIN_PANEL_NORM.PNG.DDS","extras":"ASOBO_image_converted_meta"},{"uri":"CELLULAR_BLUR_NORM.PNG.DDS","extras":"ASOBO_image_converted_meta"},{"uri":"CESSNA_208B_GRANDCARAVANEX_COCKPIT_DOORS_ALBD.PNG.DDS","extras":"ASOBO_image_converted_meta"},{"uri":"CESSNA_208B_GRANDCARAVANEX_COCKPIT_DOORS_COMP.PNG.DDS","extras":"ASOBO_image_converted_meta"},{"uri":"CESSNA_208B_GRANDCARAVANEX_COCKPIT_DOORS_NORM.PNG.DDS","extras":"ASOBO_image_converted_meta"},{"uri":"CESSNA_208B_GRANDCARAVANEX_COCKPIT_TOP_FRONT_ALBD.PNG.DDS","extras":"ASOBO_image_converted_meta"},{"uri":"CESSNA_208B_GRANDCARAVANEX_COCKPIT_TOP_FRONT_COMP.PNG.DDS","extras":"ASOBO_image_converted_meta"},{"uri":"CESSNA_208B_GRANDCARAVANEX_COCKPIT_TOP_FRONT_NORM.PNG.DDS","extras":"ASOBO_image_converted_meta"},{"uri":"CESSNA_208B_GRANDCARAVANEX_COCKPIT_BACK_ALBD.PNG.DDS","extras":"ASOBO_image_converted_meta"},{"uri":"CESSNA_208B_GRANDCARAVANEX_COCKPIT_BACK_COMP.PNG.DDS","extras":"ASOBO_image_converted_meta"},{"uri":"CESSNA_208B_GRANDCARAVANEX_COCKPIT_BACK_NORM.PNG.DDS","extras":"ASOBO_image_converted_meta"},{"uri":"CESSNA_208B_GRANDCARAVANEX_COCKPIT_SEAT_FRONT_ALBD.PNG.DDS","extras":"ASOBO_image_converted_meta"},{"uri":"CESSNA_208B_GRANDCARAVANEX_COCKPIT_SEAT_FRONT_COMP.PNG.DDS","extras":"ASOBO_image_converted_meta"},{"uri":"CESSNA_208B_GRANDCARAVANEX_COCKPIT_SEAT_FRONT_NORM.PNG.DDS","extras":"ASOBO_image_converted_meta"},{"uri":"CESSNA_208B_GRANDCARAVANEX_COCKPIT_CABIN_SEATS_ALBD.PNG.DDS","extras":"ASOBO_image_converted_meta"},{"uri":"CESSNA_208B_GRANDCARAVANEX_COCKPIT_CABIN_SEATS_COMP.PNG.DDS","extras":"ASOBO_image_converted_meta"},{"uri":"CESSNA_208B_GRANDCARAVANEX_COCKPIT_CABIN_SEATS_NORM.PNG.DDS","extras":"ASOBO_image_converted_meta"},{"uri":"CESSNA_208B_GRANDCARAVANEX_COCKPIT_FLOOR_BACK_ALBD.PNG.DDS","extras":"ASOBO_image_converted_meta"},{"uri":"CESSNA_208B_GRANDCARAVANEX_COCKPIT_FLOOR_BACK_COMP.PNG.DDS","extras":"ASOBO_image_converted_meta"},{"uri":"CESSNA_208B_GRANDCARAVANEX_COCKPIT_FLOOR_BACK_NORM.PNG.DDS","extras":"ASOBO_image_converted_meta"},{"uri":"AS700_BODY_ALBD.PNG.DDS","extras":"ASOBO_image_converted_meta"},{"uri":"AS700_BODY_COMP.PNG.DDS","extras":"ASOBO_image_converted_meta"},{"uri":"AS700_BODY_NORM.PNG.DDS","extras":"ASOBO_image_converted_meta"}]}
